<svg width="41" height="40" viewBox="0 0 41 40" fill="none" xmlns="http://www.w3.org/2000/svg">
<path d="M17.1667 33.75V26.6667H8.83333C6.99238 26.6667 5.5 25.1743 5.5 23.3333V16.6667C5.5 14.8257 6.99238 13.3333 8.83333 13.3333C10.6743 13.3333 12.1667 14.8257 12.1667 16.6667V20H16.3333V9.16667C16.3333 6.86548 18.1988 5 20.5 5C22.8012 5 24.6667 6.86548 24.6667 9.16667V23.3333H28.8333V18.3333C28.8333 16.4924 30.3257 15 32.1667 15C34.0076 15 35.5 16.4924 35.5 18.3333V26.6667C35.5 28.5076 34.0076 30 32.1667 30H25.5V33.75H30.5C31.1904 33.75 31.75 34.3096 31.75 35C31.75 35.6904 31.1904 36.25 30.5 36.25H12.1667C11.4763 36.25 10.9167 35.6904 10.9167 35C10.9167 34.3096 11.4763 33.75 12.1667 33.75H17.1667Z" fill="#FCFBFD" fill-opacity="0.09"/>
</svg>
