<svg width="40" height="33" viewBox="0 0 40 33" fill="none" xmlns="http://www.w3.org/2000/svg">
<path d="M21.0394 -3.43323e-05L17.2828 0.244305L17.1841 0.837965C16.784 0.429216 16.2688 0.208967 15.6499 0.183554L13.0605 0.0733757L12.8601 0.826639C12.8065 0.771574 12.7487 0.719395 12.6866 0.672094C12.3076 0.377712 11.8651 0.258373 11.3711 0.31838L8.48332 0.668501L8.21869 3.21566L8.74582 3.89126L8.83266 4.63746L5.1523 4.06632L5.04295 4.54207C4.98085 4.5428 4.92709 4.5456 4.87981 4.54913L4.352 4.58804C3.02525 4.68687 1.95185 5.14708 1.16215 5.95681C0.299059 6.83501 -0.0862114 7.98004 0.0161176 9.36089C0.0542266 9.87553 0.162842 10.3515 0.340683 10.7786L1.29906 12.434L0.433112 17.0699L2.18619 19.3143L2.62583 19.5217C3.82061 20.0886 5.01683 20.3753 6.18126 20.3753C6.35416 20.3753 6.52909 20.3689 6.69988 20.3562C8.02733 20.2581 9.12059 19.8069 9.95192 19.0134L9.95605 19.0085C10.3287 18.6457 10.6216 18.2355 10.8291 17.7844L10.9011 19.3537C10.8355 19.6311 10.7783 19.9715 10.7649 20.347C10.7359 21.1554 10.9152 21.8889 11.2885 22.5193C11.0874 22.5723 10.9279 22.7416 10.8996 22.9604C10.8905 23.036 10.6767 24.8128 11.7769 26.2248C12.3514 26.9611 13.1636 27.4546 14.1988 27.6968L13.8877 28.7606L17.3407 29.5943L19.8002 32.1428L22.2525 29.5873L25.7035 28.745L25.393 27.6946C26.4226 27.4518 27.2322 26.9582 27.8045 26.2248C28.9047 24.8128 28.6908 23.036 28.6816 22.9604C28.6534 22.7416 28.4939 22.5723 28.2921 22.5193C28.6661 21.8889 28.8453 21.1554 28.8164 20.347C28.8115 20.2002 28.7988 20.0604 28.7826 19.9255H30.9441C31.5899 20.1542 32.2463 20.2899 32.8949 20.328C33.024 20.3358 33.1531 20.3385 33.278 20.3385C34.3923 20.3385 35.3626 20.0428 36.1643 19.4583L36.1693 19.4547C36.5567 19.1674 36.88 18.8264 37.1313 18.4416L38.5222 16.5278C38.5829 16.4502 38.6415 16.369 38.6965 16.2871L38.7742 16.1805H38.7663C39.1679 15.5402 39.3966 14.7856 39.446 13.9292C39.5201 12.6684 39.1298 11.6173 38.2865 10.8019L40 5.85449L35.5942 4.69955L35.4368 5.12028C35.3895 5.11534 35.3472 5.11107 35.3091 5.10896L34.8044 5.08004C33.8326 5.02286 32.9739 5.18597 32.2413 5.56366L32.6985 4.02742L30.9794 3.93363L31.2321 0.511827L29.2802 0.387524L29.3316 0.0705795L26.3691 0.302128L26.2815 0.698877L26.0373 0.327572L23.6563 0.51396L23.5694 0.938951L23.3542 0.537939L21.268 0.701008L21.0394 -3.43323e-05ZM20.6322 0.601486L22.2645 5.59256L20.5976 5.70061L20.4262 4.99811L19.062 5.08644L18.9024 5.81066L17.2447 5.9187L17.9943 2.17716L17.5391 2.20181L17.774 0.787071L20.6322 0.601486ZM13.4967 0.665703L15.6259 0.756029C16.1298 0.776501 16.5348 0.962177 16.8404 1.31092C17.1502 1.65966 17.2948 2.10017 17.273 2.62893C17.2447 3.3243 16.9646 3.83822 16.4318 4.17143L17.1615 5.75284L17.1912 5.81772L17.1431 5.81559L15.4156 5.74298L14.8376 4.24285L14.7783 5.71607L13.2935 5.65332L13.4368 2.13133L13.1106 2.11788L13.4967 0.665703ZM28.6491 0.698875L27.8341 5.76829L25.8912 5.92084L25.2088 4.02395L24.8249 6.0041L22.8814 6.15598L21.2885 1.27495L23.1685 1.12747L23.8503 3.07511L24.2285 1.04407L25.7091 0.928291L26.398 2.87607L26.7691 0.845692L28.6491 0.698875ZM11.6874 0.87953C11.9267 0.893562 12.1424 0.975496 12.3351 1.12534C12.5913 1.32442 12.7394 1.60252 12.7818 1.95973C12.8397 2.45743 12.683 2.85413 12.3124 3.14852C12.5961 3.30524 12.7988 3.46417 12.9202 3.62654C13.0535 3.81008 13.1389 4.05992 13.1749 4.37407C13.2208 4.76517 13.1199 5.10047 12.8729 5.38074C12.6478 5.64829 12.3449 5.80501 11.9631 5.85089L9.58487 6.13893L9.1756 2.63173L8.8517 2.6713L9.00686 1.18316L11.4402 0.888056C11.5253 0.877644 11.6077 0.874855 11.6874 0.87953ZM28.9131 0.938948L30.6174 1.04686L30.3633 4.47439L31.9414 4.56046L31.4876 6.08391L28.7678 5.90951L29.0254 2.4235L28.7007 2.39885L28.9131 0.938948ZM14.9138 2.14958L14.8849 3.07511L15.3033 3.08923C15.5595 3.09629 15.7733 2.89581 15.781 2.64025C15.7888 2.3847 15.5885 2.17014 15.333 2.16237L14.9138 2.14958ZM19.5538 2.25203L19.2588 3.75563L20.0112 3.70701L19.5538 2.25203ZM10.8838 2.27562C10.8723 2.27562 10.8605 2.27616 10.8488 2.27735L10.5418 2.30852L10.611 2.98758L10.918 2.95654C11.1058 2.93818 11.2419 2.77022 11.2235 2.58244C11.2057 2.40705 11.057 2.27564 10.8838 2.27562ZM11.1793 3.98931C11.1646 3.98929 11.1497 3.98993 11.1347 3.99144L10.7422 4.03168L10.8297 4.89938L11.2222 4.85982C11.4622 4.83581 11.6365 4.62111 11.6118 4.38179C11.5899 4.15743 11.4006 3.98965 11.1793 3.98931ZM5.79384 5.01223L9.07185 5.52129L8.11134 9.02423C7.76695 8.8555 6.11627 8.3761 5.41973 8.48199C4.89608 8.56176 4.64056 8.72211 4.66738 9.08497C4.68432 9.31229 5.09366 9.53317 5.89466 9.74778C6.93347 10.0372 7.68017 10.3352 8.13465 10.6437C8.97375 11.2205 9.43463 12.0605 9.51509 13.1611C9.60895 14.4219 9.24185 15.4534 8.41686 16.256C7.65187 16.986 6.64276 17.3975 5.3887 17.49C4.07888 17.5874 2.73728 17.3093 1.36113 16.6584L2.00267 13.2205L3.52068 13.776C4.13254 13.9702 4.6533 14.0513 5.08238 14.0196C5.57708 13.9836 5.81146 13.783 5.78465 13.4202C5.76489 13.1477 5.34852 12.9041 4.53553 12.6902C3.48683 12.4149 2.72391 12.1234 2.24825 11.8156C1.39857 11.2501 0.932809 10.4121 0.85024 9.29947C0.766965 8.16359 1.06892 7.24596 1.75841 6.54354C2.40626 5.87994 3.29131 5.5064 4.4134 5.4231L4.9412 5.38433C5.00754 5.37939 5.10424 5.37728 5.23127 5.3794C5.3583 5.38152 5.5164 5.38719 5.70554 5.39566L5.79384 5.01223ZM36.1136 5.70061L38.9195 6.43616L37.7508 9.91165C37.4459 9.70904 37.0522 9.50634 36.5674 9.30373C36.0218 9.075 35.6069 8.95364 35.3232 8.9367C34.8186 8.90705 34.556 9.06662 34.5355 9.41324C34.5228 9.62997 34.8821 9.89106 35.6139 10.1946C36.5603 10.5991 37.2293 10.9755 37.621 11.3249C38.3422 11.9765 38.6726 12.8286 38.6112 13.8805C38.5406 15.0848 38.0641 16.0154 37.182 16.6712C36.3662 17.2663 35.3599 17.5282 34.1609 17.4583C33.0635 17.394 31.9781 17.0545 30.9047 16.4382L31.1566 16.9789L27.7938 16.8279L26.7084 14.0358L26.5849 16.7735L24.4643 16.6774L24.4671 16.6866H21.3352L21.1001 15.3502H18.537L18.1509 16.6866H15.0366L16.8926 9.77749L16.038 9.76976L16.6498 7.15199H22.0197L23.8764 14.3881L24.0698 10.1008L23.4522 10.0726L24.1919 7.37647L28.2243 7.5586C29.1784 7.60095 29.9442 7.94834 30.5201 8.59923C30.6655 8.76089 30.7911 8.93317 30.8976 9.11602C30.9654 8.04085 31.3662 7.21624 32.1023 6.64159C32.7988 6.09518 33.6838 5.85241 34.7558 5.91524L35.2603 5.94482C35.3231 5.94905 35.4149 5.95897 35.5356 5.97733C35.6563 5.99497 35.8044 6.01973 35.9823 6.0522L36.1136 5.70061ZM16.2814 7.15199L15.4819 10.2243L13.2588 10.3183L13.5694 16.5681L10.8891 16.7008L10.5638 10.4135L8.39009 10.5427L8.93774 7.87421L12.8982 7.65612L12.9568 7.2996L16.2814 7.15199ZM26.5772 10.0471L26.5201 11.8629L27.3415 11.8883C27.8433 11.9046 28.2624 11.5106 28.278 11.0086C28.2942 10.5074 27.9004 10.0874 27.3987 10.0726L26.5772 10.0471ZM20.0479 10.091L19.29 12.8738L20.7099 12.8837L20.0479 10.091ZM31.3302 11.0284V11.0531C31.2724 12.345 30.7374 13.2981 29.7275 13.9137L30.5871 15.759L31.4939 12.9924L32.8602 13.7082C33.4142 13.9701 33.897 14.112 34.307 14.136C34.7805 14.1635 35.0268 14.004 35.0465 13.6567C35.0621 13.3962 34.6993 13.1139 33.9568 12.8096C32.9992 12.4157 32.314 12.0436 31.9018 11.6928C31.6725 11.4923 31.482 11.2705 31.3302 11.0284ZM19.7812 16.203L22.3338 18.849L25.9181 19.713L24.8891 23.233L25.928 26.7501L22.3457 27.6247L19.8002 30.2776L17.2477 27.6318L13.6632 26.7676L14.6922 23.2471L13.6533 19.7301L17.2355 18.8561L19.7812 16.203ZM11.6096 18.842L12.9356 19.3757L13.0894 19.8959L14.0796 23.2485L13.0994 26.6024L13.0747 26.6872C11.1064 25.4772 11.4191 23.0282 11.4191 23.0282L12.5298 23.1575C11.3011 22.1614 11.2011 20.8418 11.326 19.9255C11.4128 19.2859 11.6096 18.842 11.6096 18.842ZM27.9716 18.842C27.9716 18.842 28.1686 19.2859 28.2554 19.9255C28.3804 20.8418 28.28 22.1614 27.0507 23.1575L28.1622 23.0282C28.1622 23.0282 28.4734 25.466 26.5193 26.6788L26.4918 26.5834L25.5016 23.2322L26.4819 19.8782L26.6273 19.3834L27.9716 18.842ZM19.7902 18.897C17.4049 18.897 15.4721 20.8271 15.4721 23.2076C15.4721 25.5887 17.4049 27.5188 19.7902 27.5188C22.1749 27.5188 24.1085 25.5887 24.1085 23.2076C24.1085 20.8271 22.1749 18.897 19.7902 18.897ZM19.7902 19.6135C21.7719 19.6135 23.3782 21.2909 23.3782 23.0537C23.3782 24.2136 22.6803 25.1193 21.6393 25.6043V26.0116C21.6393 26.2304 21.4622 26.4083 21.2427 26.4083H18.3379C18.1191 26.4083 17.9406 26.2304 17.9406 26.0116V25.6043C16.9004 25.1193 16.2018 24.2136 16.2018 23.0537C16.2018 21.2909 17.8086 19.6135 19.7902 19.6135ZM18.9135 22.1432C18.8499 22.1432 18.7864 22.1673 18.7381 22.2157C18.6407 22.3124 18.6407 22.4699 18.7381 22.5673L19.1982 23.0261C19.2469 23.0741 19.3104 23.0995 19.3739 23.0995C19.4381 23.0995 19.5017 23.0741 19.5504 23.0261C19.6471 22.9294 19.6471 22.7727 19.5504 22.6753L19.0896 22.2157C19.0409 22.1673 18.9771 22.1432 18.9135 22.1432ZM20.6992 22.1432C20.6357 22.1432 20.5722 22.1673 20.5235 22.2157L20.0627 22.6753C19.966 22.7727 19.966 22.9301 20.0627 23.0261C20.1121 23.0748 20.1757 23.0995 20.2392 23.0995C20.3027 23.0995 20.3662 23.0748 20.4149 23.0261L20.875 22.5673C20.9724 22.4698 20.9724 22.3131 20.875 22.2157C20.8263 22.1673 20.7627 22.1432 20.6992 22.1432ZM18.2059 22.7077C17.6293 22.7077 17.1622 23.192 17.1622 23.7892C17.1622 24.3865 17.6293 24.8708 18.2059 24.8708C18.7825 24.8708 19.2497 24.3865 19.2497 23.7892C19.2497 23.192 18.7825 22.7077 18.2059 22.7077ZM21.4558 22.7077C20.8792 22.7077 20.4121 23.192 20.4121 23.7892C20.4121 24.3865 20.8792 24.8708 21.4558 24.8708C22.0324 24.8708 22.4996 24.3865 22.4996 23.7892C22.4996 23.192 22.0324 22.7077 21.4558 22.7077ZM19.8093 24.1571C19.8093 24.1563 19.2497 25.0544 19.2497 25.0544C19.2489 25.0558 20.3309 25.0558 20.3302 25.0544L19.8093 24.1571Z" fill="#FCFBFD"/>
</svg>
