<svg width="40" height="40" viewBox="0 0 40 40" fill="none" xmlns="http://www.w3.org/2000/svg">
<path d="M27.3455 21.492H26.2344V10.3046C26.2344 9.95681 25.9545 9.67691 25.6068 9.67691H17.8205C17.7018 9.67691 17.5745 9.67691 17.4558 9.67691C16.65 9.65995 15.9376 9.65146 15.2929 10.2537C14.6483 10.8474 14.5805 11.7041 14.5465 12.1451C14.5381 12.2045 14.5381 12.2554 14.5296 12.3063C14.4787 12.7049 14.4363 13.2053 14.3684 13.8754C14.3599 13.9772 14.3515 14.0874 14.343 14.1977C13.7832 20.2706 12.7399 21.4835 12.7399 21.4835H11.8069C11.3744 21.4835 11.0266 21.8313 11.0266 22.2638V25.8771C11.0266 26.8864 11.8409 27.7007 12.8502 27.7007H14.1988C14.5465 27.7007 14.8349 27.4208 14.8349 27.0645V25.0119H23.9528V25.8771C23.9528 26.8864 24.7671 27.7007 25.7764 27.7007H27.3455C27.6933 27.7007 27.9817 27.4208 27.9817 27.0645L27.9986 27.073V22.1451C27.9986 21.7804 27.7018 21.492 27.3455 21.492ZM22.1971 21.4835H16.6415C17.8714 20.1095 18.1767 16.3436 18.27 13.3156H22.1971V21.4835Z" fill="white"/>
<path d="M20 0C8.95674 0 0 8.95674 0 20C0 31.0433 8.95674 40 20 40C31.0433 40 40 31.0433 40 20C40 8.95674 31.0433 0 20 0ZM20 37.5742C14.1391 37.5742 8.94826 34.6989 5.75912 30.2884C10.1442 31.6879 14.9534 32.4597 20 32.4597C25.0466 32.4597 29.8558 31.6879 34.2409 30.2884C31.0517 34.6989 25.8609 37.5742 20 37.5742ZM20 30.9924C14.648 30.9924 9.5335 30.2629 4.87701 28.9567C3.32485 26.3359 2.42578 23.274 2.42578 20.0085C2.42578 10.2969 10.2969 2.43427 20 2.43427C29.7116 2.43427 37.5742 10.3053 37.5742 20.0085C37.5742 23.2824 36.6751 26.3359 35.123 28.9567C30.458 30.2714 25.352 30.9924 20 30.9924Z" fill="white"/>
</svg>
