<svg width="50" height="15" viewBox="0 0 50 15" fill="none" xmlns="http://www.w3.org/2000/svg">
<path d="M5.7208 2.15584C4.57667 1.6452 3.89016 1.47505 3.20365 1.47505C2.51714 1.47505 2.05947 1.70196 2.05947 2.09908C2.05947 3.29045 6.06408 2.95009 6.06408 5.6732C6.06408 7.20494 4.80551 8.05594 3.03201 8.05594C1.65905 8.05594 0.972539 7.71557 0.17164 7.31845V5.61644C1.31576 6.35399 2.00228 6.63766 2.86043 6.63766C3.60413 6.63766 4.00455 6.35399 4.00455 5.90011C4.00455 4.59528 0 5.10586 0 2.26929C0 0.90771 1.20138 0 3.03201 0C3.89016 0 4.69106 0.170195 5.7208 0.624053V2.15584ZM11.3843 7.71557C10.6979 7.94249 10.1259 8.05594 9.55377 8.05594C7.66588 8.05594 6.46456 6.97803 6.46456 5.33283C6.46456 3.74433 7.72313 2.55296 9.49657 2.55296C10.0114 2.55296 10.7551 2.66642 11.2703 2.89333V4.14146C10.8123 3.91449 10.2975 3.80103 9.89705 3.80103C8.86726 3.80103 8.238 4.42507 8.238 5.33283C8.238 6.29723 8.86725 6.86457 9.8398 6.86457C10.2403 6.86457 10.5835 6.75111 11.327 6.5242V7.71557H11.3843ZM27.0023 2.55296C25.3432 2.55296 24.1993 3.68758 24.1993 5.33283C24.1993 6.97803 25.4005 8.05594 27.2883 8.05594C27.6889 8.05594 28.7187 8.05594 29.6913 7.37515V6.29723C28.8901 6.86457 28.3754 7.03478 27.7462 7.03478C26.7163 7.03478 26.0298 6.46745 25.9725 5.55974H29.7486C29.8053 3.68758 28.5468 2.55296 27.0023 2.55296ZM25.9725 4.70874C26.0298 3.97125 26.4877 3.57412 27.1169 3.57412C27.7462 3.57412 28.2035 4.02795 28.2608 4.70874H25.9725ZM30.3778 7.94249H32.0937V2.66642H30.3778V7.94249ZM36.7277 0.113461V2.89333C36.2698 2.66642 35.8125 2.55296 35.3546 2.55296C33.8101 2.55296 32.7802 3.68758 32.7802 5.27607C32.7802 6.86457 33.8101 7.99919 35.2405 7.99919C35.8125 7.99919 36.2698 7.82903 36.7277 7.48861V7.94249H38.3868V0.113461H36.7277ZM36.7277 6.5242C36.3844 6.80781 36.0985 6.92133 35.7552 6.92133C34.954 6.92133 34.4967 6.29723 34.4967 5.33283C34.4967 4.25491 35.0113 3.68758 35.8125 3.68758C36.0985 3.68758 36.4991 3.80103 36.7277 3.97125V6.5242ZM41.9337 2.55296C40.2746 2.55296 39.1307 3.68758 39.1307 5.33283C39.1307 6.97803 40.3319 8.05594 42.2197 8.05594C42.6203 8.05594 43.6501 8.05594 44.6227 7.37515V6.29723C43.8215 6.86457 43.3068 7.03478 42.6203 7.03478C41.5904 7.03478 40.9039 6.46745 40.8465 5.55974H44.6794C44.7367 3.68758 43.4782 2.55296 41.9337 2.55296ZM40.9039 4.70874C40.9612 3.97125 41.4191 3.57412 42.0483 3.57412C42.6776 3.57412 43.1349 4.02795 43.1922 4.70874H40.9039ZM47.197 4.19816C47.7116 3.12024 48.2836 2.55296 48.9128 2.55296C49.2561 2.55296 49.5421 2.66642 50 3.06354L49.5421 4.53858C49.0848 4.25491 48.7988 4.14146 48.5696 4.14146C47.9403 4.14146 47.5403 4.70874 47.197 5.6732V7.94249H45.5379V2.66642H47.197V4.19816ZM32.151 0.453858C32.3229 0.850982 32.0364 1.41829 31.5217 1.75871C31.0071 2.04232 30.4919 1.98563 30.3205 1.53175C30.1486 1.13464 30.4346 0.567319 30.9498 0.226929C31.4644 -0.0567337 31.9796 0 32.151 0.453858ZM17.3915 4.59528C17.3915 3.177 16.419 2.55296 15.4464 2.55296C14.7599 2.55296 14.2447 2.83657 13.7873 3.46067V0.113461H12.1282V7.94249H13.73V4.59528C14.1306 4.02795 14.4739 3.80103 14.8739 3.80103C15.3891 3.80103 15.7324 4.14146 15.7324 4.93571V6.80781C16.3044 6.5242 16.8763 6.35399 17.3915 6.29723V4.59528ZM21.5677 2.55296C20.8811 2.55296 20.3659 2.77987 19.8512 3.40391V2.66642H18.1921V6.24053C18.7641 6.29723 19.508 6.5809 19.8512 6.97803V4.53858C20.3091 3.85779 20.5951 3.68758 20.9957 3.68758C21.453 3.68758 21.8536 3.97125 21.8536 4.76549V7.99919H23.5127V4.59528C23.5127 3.00679 22.4256 2.55296 21.5677 2.55296ZM24.428 9.47423H22.4829V10.8358H24.3707V11.4031H22.4829V12.8214H24.4853V13.4455H21.8536V8.85019H24.428V9.47423ZM26.0298 13.4455H26.659V8.85019H26.0298V13.4455ZM28.776 12.0272H30.8925C30.8925 10.8926 30.3778 10.3819 29.5766 10.3819C28.7187 10.3819 28.1462 11.006 28.1462 11.9137C28.1462 12.7647 28.6614 13.5022 29.634 13.5022C30.1486 13.5022 30.4919 13.3888 30.8352 13.1618V12.5945C30.4919 12.8214 30.1486 12.9349 29.8053 12.9349C29.1761 12.9349 28.8328 12.5945 28.776 12.0272ZM29.5766 10.8926C29.9772 10.8926 30.2632 11.1762 30.2632 11.6301H28.7187C28.8328 11.1195 29.1187 10.8926 29.5766 10.8926ZM34.7826 11.2329C34.4393 11.006 34.2107 10.9493 33.9247 10.9493C33.3522 10.9493 33.0089 11.3464 33.0089 11.9704C33.0089 12.5945 33.4095 12.9349 34.0388 12.9349C34.268 12.9349 34.554 12.8782 34.8399 12.708V13.2753C34.6113 13.3888 34.268 13.4455 33.9247 13.4455C33.0089 13.4455 32.3796 12.8214 32.3796 11.9704C32.3796 11.006 32.9522 10.3252 33.8674 10.3252C34.2107 10.3252 34.4393 10.3819 34.7253 10.5521V11.2329H34.7826ZM37.4716 10.4387H38.4441V10.9493H37.4716V12.4811C37.4716 12.8214 37.7003 12.9349 37.9289 12.9349C38.1582 12.9349 38.3868 12.8782 38.6155 12.708V13.2753C38.3868 13.3888 38.1009 13.5022 37.8716 13.5022C37.2424 13.5022 36.8991 13.1051 36.8991 12.5378V10.9493H36.3844V10.8926L37.5289 9.81465V10.4387H37.4716ZM40.7325 10.4387V11.1195C41.0185 10.6089 41.3045 10.3819 41.5904 10.3819C41.8191 10.3819 42.0483 10.4954 42.3343 10.7224L41.991 11.2329C41.8191 11.0627 41.5904 10.9493 41.4191 10.9493C41.0185 10.9493 40.6752 11.3464 40.6752 11.857V13.4455H40.1032V10.4387H40.7325ZM48.4555 11.2329C48.1122 11.006 47.8836 10.9493 47.597 10.9493C47.0251 10.9493 46.6818 11.3464 46.6818 11.9704C46.6818 12.5945 47.0824 12.9349 47.7116 12.9349C47.9403 12.9349 48.2269 12.8782 48.5128 12.708V13.2753C48.2836 13.3888 47.9403 13.4455 47.597 13.4455C46.6818 13.4455 46.0525 12.8214 46.0525 11.9704C46.0525 11.006 46.6245 10.3252 47.5403 10.3252C47.8836 10.3252 48.1122 10.3819 48.3982 10.5521V11.2329H48.4555ZM43.9361 13.4455H44.508V10.4387H43.9361V13.4455ZM44.508 9.36077C44.5653 9.53098 44.4507 9.70119 44.2794 9.81465C44.1074 9.92811 43.9361 9.87135 43.8788 9.75789C43.8215 9.58768 43.9361 9.41753 44.1074 9.30407C44.2794 9.19056 44.4507 9.19056 44.508 9.36077ZM18.2494 10.8358L18.4208 10.2118H20.0232C20.2518 9.24731 20.0799 8.39631 19.508 7.82903C18.3641 6.69436 15.9038 7.09148 14.0733 8.79343C13.7873 9.0771 13.5581 9.36077 13.3294 9.64444H14.302L14.0733 10.2685H12.8721C12.7575 10.4954 12.6429 10.6656 12.5855 10.8926H14.016L13.7873 11.5166H12.4142C12.1855 12.5378 12.3569 13.4455 12.9288 14.0128C14.0733 15.1474 16.533 14.7503 18.3641 13.0483C18.7073 12.7647 18.936 12.4243 19.1647 12.0839H17.9062L18.0781 11.4598H19.5653C19.6799 11.2329 19.7939 11.0627 19.8512 10.8358H18.2494ZM17.8488 9.58768C17.7348 9.58768 17.6775 9.58768 17.6775 9.64444C17.6775 9.64444 17.6775 9.70119 17.6202 9.70119L17.1055 11.6868C16.9909 12.3675 16.133 13.1051 14.9885 13.1051H13.3867L13.6727 12.0839H14.7026C14.8172 12.0839 14.8739 12.0272 14.9312 11.9704C14.9312 11.9137 14.9885 11.9137 14.9885 11.857L15.3891 10.0983C15.5605 9.41753 16.3044 8.62328 17.4483 8.62328H19.0506L18.8214 9.58768H17.8488Z" fill="white"/>
</svg>
