<svg width="45" height="23" viewBox="0 0 45 23" fill="none" xmlns="http://www.w3.org/2000/svg">
<path d="M7.48125 8.37076C6.5596 8.31512 5.63604 8.44188 4.76334 8.74379C3.89064 9.0457 3.08591 9.51684 2.39513 10.1303C2.37361 10.1492 2.34711 10.1614 2.3188 10.1656C2.29049 10.1697 2.26159 10.1656 2.23557 10.1537C2.20954 10.1418 2.1875 10.1227 2.1721 10.0985C2.1567 10.0744 2.14859 10.0463 2.14875 10.0176V0.502403H0V15.419C0 15.419 0 15.4258 0 15.4292C2.0262e-05 16.8098 0.403671 18.1601 1.16115 19.3137C1.91863 20.4673 2.99681 21.3735 4.26265 21.9208C5.5285 22.468 6.92664 22.6321 8.28459 22.3931C9.64253 22.154 10.9009 21.522 11.9044 20.5753C12.9078 19.6285 13.6126 18.4083 13.9316 17.0652C14.2506 15.7221 14.17 14.3148 13.6997 13.0171C13.2294 11.7193 12.3899 10.5878 11.2849 9.76214C10.1798 8.93648 8.85759 8.4528 7.48125 8.37076ZM7.59375 20.3203C6.58236 20.4307 5.56169 20.224 4.6726 19.7288C3.78351 19.2336 3.06984 18.4743 2.63008 17.5557C2.19032 16.6371 2.04616 15.6044 2.21749 14.6003C2.38881 13.5961 2.86719 12.67 3.58658 11.9496C4.30598 11.2293 5.23093 10.7503 6.23378 10.5787C7.23663 10.4072 8.26793 10.5515 9.18536 10.9919C10.1028 11.4322 10.8611 12.1468 11.3557 13.037C11.8502 13.9273 12.0566 14.9493 11.9464 15.962C11.8241 17.0757 11.3264 18.1143 10.5353 18.9067C9.74425 19.699 8.70706 20.1976 7.59488 20.3203H7.59375Z" fill="white"/>
<path d="M39.3412 2.15155V0C37.4705 0.00237902 35.6769 0.74702 34.3533 2.07084C33.0298 3.39465 32.2841 5.18973 32.2796 7.06293V7.28822C32.2796 7.30794 32.2718 7.32685 32.2579 7.3408C32.2439 7.35474 32.2251 7.36257 32.2054 7.36257H29.9914V9.51524H32.2054C32.2152 9.51524 32.225 9.5172 32.234 9.52101C32.2431 9.52482 32.2514 9.53039 32.2583 9.53742C32.2652 9.54444 32.2706 9.55277 32.2743 9.56192C32.278 9.57107 32.2798 9.58086 32.2796 9.59072V21.9976H34.4284V9.59072C34.4284 9.57089 34.4362 9.55187 34.45 9.53774C34.4639 9.52362 34.4828 9.51554 34.5026 9.51524H38.3647V7.36482H34.5026C34.483 7.36453 34.4643 7.35661 34.4504 7.34273C34.4366 7.32885 34.4287 7.3101 34.4284 7.29048V7.06518C34.4313 5.76195 34.9501 4.51302 35.8709 3.59202C36.7918 2.67102 38.0397 2.15303 39.3412 2.15155Z" fill="white"/>
<path d="M23.049 8.37076C22.1272 8.3151 21.2034 8.44184 20.3306 8.74375C19.4577 9.04566 18.6527 9.51681 17.9617 10.1303C17.9404 10.1493 17.9139 10.1617 17.8856 10.1659C17.8573 10.1702 17.8284 10.1661 17.8024 10.1541C17.7764 10.1422 17.7544 10.1229 17.7392 10.0987C17.7239 10.0744 17.716 10.0463 17.7165 10.0176V0.502403H15.5677V15.4292C15.5678 16.8098 15.9714 18.1601 16.7289 19.3137C17.4864 20.4673 18.5646 21.3735 19.8304 21.9208C21.0962 22.468 22.4944 22.6321 23.8523 22.3931C25.2103 22.154 26.4686 21.522 27.4721 20.5753C28.4756 19.6285 29.1803 18.4083 29.4994 17.0652C29.8184 15.7221 29.7378 14.3148 29.2674 13.0171C28.7971 11.7193 27.9576 10.5878 26.8526 9.76214C25.7476 8.93648 24.4253 8.4528 23.049 8.37076ZM23.1615 20.3203C22.1501 20.4307 21.1294 20.224 20.2403 19.7288C19.3513 19.2336 18.6376 18.4743 18.1978 17.5557C17.7581 16.6371 17.6139 15.6044 17.7852 14.6003C17.9566 13.5961 18.4349 12.67 19.1543 11.9496C19.8737 11.2293 20.7987 10.7503 21.8015 10.5787C22.8044 10.4072 23.8357 10.5515 24.7531 10.9919C25.6705 11.4322 26.4289 12.1468 26.9234 13.037C27.418 13.9273 27.6244 14.9493 27.5141 15.962C27.3919 17.0757 26.8942 18.1143 26.1031 18.9067C25.312 19.699 24.2748 20.1976 23.1626 20.3203H23.1615Z" fill="white"/>
<path d="M43.0897 14.3275C44.1448 14.3275 45 13.4711 45 12.4148C45 11.3584 44.1448 10.502 43.0897 10.502C42.0347 10.502 41.1795 11.3584 41.1795 12.4148C41.1795 13.4711 42.0347 14.3275 43.0897 14.3275Z" fill="white"/>
<path d="M43.0897 20.3485C44.1448 20.3485 45 19.4921 45 18.4357C45 17.3793 44.1448 16.523 43.0897 16.523C42.0347 16.523 41.1795 17.3793 41.1795 18.4357C41.1795 19.4921 42.0347 20.3485 43.0897 20.3485Z" fill="white"/>
</svg>
