<svg width="40" height="40" viewBox="0 0 40 40" fill="none" xmlns="http://www.w3.org/2000/svg">
<path fill-rule="evenodd" clip-rule="evenodd" d="M19.4192 4.41806C19.3486 4.44802 19.2588 4.50749 19.2196 4.55017C19.1406 4.6363 18.53 5.64102 16.3835 9.2166C15.5886 10.5408 14.7158 11.9946 14.4439 12.4473C14.172 12.9 13.3005 14.3445 12.5073 15.6573C11.7141 16.9702 10.3759 19.1926 9.53361 20.5959C8.69132 21.9993 7.27057 24.3606 6.37641 25.8432C4.51851 28.9238 3.86987 30.0016 3.15652 31.1933C2.87878 31.6574 2.47724 32.3241 2.26416 32.6749C1.90396 33.2681 1.8767 33.3289 1.87507 33.5424C1.87361 33.7307 1.89437 33.7985 1.99053 33.9197C2.18953 34.1706 2.59582 34.2272 2.86629 34.0415C2.94451 33.9879 3.40028 33.2697 4.18137 31.9694C5.26704 30.1619 6.54117 28.0447 9.94872 22.3862C10.5962 21.311 11.7998 19.3109 12.6234 17.9414C13.4471 16.572 14.9349 14.0996 15.9297 12.4473C16.9245 10.7949 17.9323 9.11886 18.1691 8.72274C18.6648 7.89384 19.6617 6.23719 19.6729 6.22386C19.6809 6.21439 19.9638 6.68335 22.9307 11.6242C23.9365 13.2992 25.2688 15.5123 25.8914 16.5422C26.5139 17.5721 27.1351 18.5999 27.2719 18.8263C27.4087 19.0526 28.0643 20.1453 28.729 21.2544C29.3936 22.3635 30.1778 23.6683 30.4717 24.1539C31.3279 25.5685 33.8282 29.7239 35.149 31.9271C35.9694 33.2957 36.4066 33.9855 36.4905 34.0438C36.6827 34.1773 37.0134 34.1881 37.2005 34.0667C37.3836 33.9481 37.4999 33.7368 37.5 33.5228C37.5001 33.3467 37.4854 33.3215 34.641 28.6006C32.425 24.9227 30.6847 22.0309 29.2542 19.6494C28.5471 18.4723 27.4151 16.5926 26.7386 15.4722C26.0621 14.3517 25.3967 13.2498 25.2601 13.0234C25.1234 12.7971 24.5843 11.8989 24.062 11.0274C21.4608 6.68726 20.3018 4.77286 20.1816 4.6175C19.9938 4.37468 19.7015 4.29822 19.4192 4.41806ZM9.89736 33.7088C9.41387 33.8936 9.34608 34.5509 9.7837 34.811L9.92886 34.8973H19.6818H29.4348L29.5905 34.7955C29.8976 34.5948 29.9596 34.1762 29.7224 33.9052C29.4946 33.6449 30.2301 33.6624 19.6667 33.6652C13.3711 33.667 9.96708 33.6821 9.89736 33.7088Z" fill="#FCFBFD"/>
</svg>
