<svg width="50" height="18" viewBox="0 0 50 18" fill="none" xmlns="http://www.w3.org/2000/svg">
<path d="M7.52038 0H16.6636L17.9241 1.26583L19.1501 2.53167H19.1487L17.2675 5.24418C15.9166 7.19205 15.9046 8.74693 17.2675 10.7549L19.2501 13.5263H9.97322L8.21908 10.7549C6.95657 8.83495 6.96183 7.11544 8.21908 5.24418L10.0415 2.53167L7.52038 0Z" fill="#FCFBFD"/>
<path d="M7.55469 16.0581H16.6435L19.2501 13.5264H9.97324L7.55469 16.0581Z" fill="#FCFBFD"/>
<path fill-rule="evenodd" clip-rule="evenodd" d="M8.60893 14.7927L7.35571 16.0585H12.0519H16.7482L18.0014 14.7927L19.2546 13.5269H14.5584H9.97373L8.60893 14.7927Z" fill="#FCFBFD"/>
<path fill-rule="evenodd" clip-rule="evenodd" d="M3.35521 11.2032C3.25027 11.2586 2.5287 12.2649 1.60297 13.647L0 16.0578C1.04566 16.0578 7.31961 16.0578 7.31961 16.0578C7.31961 16.0578 4.3847 11.5545 4.18747 11.347C3.99573 11.1452 3.596 11.0762 3.35521 11.2032Z" fill="#FCFBFD"/>
<path fill-rule="evenodd" clip-rule="evenodd" d="M3.35521 4.85461C3.25027 4.79927 2.5287 3.79298 1.60297 2.41082L0 0C1.04566 0 7.31961 0 7.31961 0C7.31961 0 4.3847 4.50329 4.18747 4.71089C3.99573 4.91262 3.596 4.98163 3.35521 4.85461Z" fill="#FCFBFD"/>
<path d="M7.32141 0L9.84239 2.53167L8.0201 5.24418C6.76286 7.11544 6.7576 8.83495 8.0201 10.7549L9.97371 13.5263H19.2535L17.3723 10.7549C16.0092 8.74693 16.0213 7.19205 17.3723 5.24418L19.2535 2.53167H19.2549L18.0289 1.26584L16.7684 0H7.32141Z" fill="#FCFBFD"/>
<path d="M27.1278 11.2915C26.3299 11.2915 25.6448 11.5642 25.2904 11.9857V11.2968H23.9363V18H25.354V15.4779C25.7315 15.9409 26.3608 16.1402 27.1278 16.1402C28.5 16.1402 29.4227 15.2251 29.4227 13.7094C29.4227 12.1936 28.5906 11.2915 27.1278 11.2915ZM26.8516 15.0458C26.1427 15.0458 25.3991 14.8118 25.3991 13.7094C25.3991 12.6863 26.1427 12.3731 26.8516 12.3731C27.5604 12.3731 28.1915 12.8752 28.1915 13.7094C28.1915 14.5435 27.5604 15.0458 26.8516 15.0458Z" fill="#FCFBFD"/>
<path d="M31.1171 12.155L31.1188 11.2968H29.866V16.1246H31.1824V13.8439C31.1824 12.9201 31.8334 12.4986 32.615 12.4986C32.724 12.4986 33.1782 12.5534 33.3391 12.6519L33.5106 11.3605C31.8941 11.0219 31.4624 11.6886 31.1171 12.155Z" fill="#FCFBFD"/>
<path d="M36.1489 16.1936C37.8324 16.1936 38.8298 15.1355 38.8298 13.6826C38.8298 12.0885 37.6881 11.1982 36.1341 11.1982C34.5801 11.1982 33.3777 12.0885 33.3777 13.6826C33.3777 15.1355 34.4415 16.1936 36.1489 16.1936ZM36.1341 14.9445C35.3058 14.9445 34.7074 14.5167 34.7074 13.6826C34.7074 12.8485 35.3058 12.3967 36.1341 12.3967C36.9623 12.3967 37.5 12.8485 37.5 13.6826C37.5 14.5167 36.9623 14.9445 36.1341 14.9445Z" fill="#FCFBFD"/>
<path d="M30.5646 5.37402C29.5878 5.37402 28.9793 5.61367 28.5906 6.1105C28.2469 5.57754 27.7347 5.37402 26.9444 5.37402C25.9974 5.37402 25.6451 5.67 25.2834 6.08553V5.4463H23.9363V10.2227H25.2845V7.78377C25.2845 6.91658 25.7315 6.51009 26.5465 6.51009C27.1943 6.51009 27.7347 6.87141 27.7347 7.6573V10.2227H29.0121V7.78377C29.0121 6.77471 29.5881 6.51009 30.2209 6.51009C30.7906 6.51009 31.4092 6.77471 31.4092 7.6573V10.2227H32.6866V7.44051C32.6866 5.95906 31.8486 5.37402 30.5646 5.37402Z" fill="#FCFBFD"/>
<path d="M38.3644 7.09779C38.051 5.96219 36.9913 5.29102 35.7953 5.29102C34.3125 5.29102 33.1782 6.02271 33.1782 7.70501C33.1782 9.34374 34.1091 10.229 35.9043 10.229C37.0957 10.229 38.0984 9.76405 38.4309 8.56848H37.1011C36.9015 8.83416 36.7021 9.09984 35.9043 9.09984C34.9069 9.09984 34.508 8.63489 34.4415 8.10354H38.4309C38.4595 7.73136 38.4652 7.46298 38.3644 7.09779ZM35.7953 6.3766C36.4282 6.3766 37.0346 6.70869 37.1011 7.24006H34.4415C34.508 6.77513 35.1534 6.3766 35.7953 6.3766Z" fill="#FCFBFD"/>
<path d="M42.8858 3.98486V6.17675C42.6199 5.7118 42.0214 5.36269 41.2236 5.36269C39.5614 5.36269 38.7634 6.26602 38.7634 7.79262C38.7634 9.31924 39.5614 10.2948 41.2236 10.2948C41.8745 10.2948 42.6895 9.8963 42.8858 9.43136V10.2226H44.178V3.98486H42.8858ZM41.4231 9.13858C40.7178 9.13858 40.0268 8.63272 40.0268 7.79262C40.0268 6.95254 40.7178 6.44668 41.4231 6.44668C42.1193 6.44668 42.7947 6.95254 42.7947 7.79262C42.7947 8.63272 42.1193 9.13858 41.4231 9.13858Z" fill="#FCFBFD"/>
<path d="M50 10.2232L48.0719 7.77516L49.9277 5.36328H48.4708L47.3329 6.84155L46.1436 5.36328H44.6929L46.5645 7.77516L44.6929 10.2232H46.2299L47.3329 8.73268L48.4708 10.2232H50Z" fill="#FCFBFD"/>
<path d="M23.4561 15.3433C23.4561 15.7611 23.117 16.0998 22.6989 16.0998C22.2807 16.0998 21.9417 15.7611 21.9417 15.3433C21.9417 14.9255 22.2807 14.5869 22.6989 14.5869C23.117 14.5869 23.4561 14.9255 23.4561 15.3433Z" fill="#FCFBFD"/>
</svg>
